<svg width="300" height="300" viewBox="0 0 300 300" fill="none" xmlns="http://www.w3.org/2000/svg">
<g clip-path="url(#clip0_10_128)">
<path d="M243.731 57.7047L243.734 57.702L258.862 42.5207C233.099 15.9527 197.004 -0.532851 157.074 -0.463159C78.9648 -0.326833 15.7557 63.1033 15.892 141.212C15.9607 180.568 32.0986 216.142 58.0867 241.736L42.2094 257.603C67.9458 283.732 103.73 299.931 143.297 299.931C221.669 299.931 285.201 236.379 285.201 157.984C285.201 118.833 269.356 83.3847 243.731 57.7047Z" fill="#FF9712"/>
<path fill-rule="evenodd" clip-rule="evenodd" d="M243.374 57.3304L74.0089 227.332C51.4393 205.556 37.3797 175.014 37.3206 141.175C37.205 74.9007 90.8369 21.0812 157.111 20.9655C190.938 20.9065 221.521 34.8501 243.374 57.3304ZM207.07 40.8547C218.05 47.6063 220.682 61.9266 212.982 72.2634C206.614 80.8133 197.494 89.0819 189.154 96.6432L189.152 96.6452C186.978 98.6161 184.858 100.539 182.853 102.406C176.613 108.216 166.726 103.389 166.548 94.8647L166.539 94.4335C166.291 82.8531 166.971 71.2743 168.731 60.8945C171.88 42.3317 191.031 30.9926 207.07 40.8547ZM102.435 82.0425C92.6183 68.8153 96.0239 50.9301 109.843 41.9651C128.864 29.6246 154.889 44.8411 156.626 67.4485C157.629 80.4946 156.062 93.8328 154.378 108.175L154.341 108.494C153.557 115.17 145.387 117.327 139.529 114.029C135.924 111.999 132.053 109.659 129.068 107.452C118.609 99.7199 109.16 91.1031 102.435 82.0425ZM60.2345 197.621C67.1433 205.87 79.2024 206.371 87.766 199.855C97.3879 192.534 106.851 181.181 114.847 171.589L114.848 171.588L114.848 171.587C117.302 168.644 119.617 165.866 121.757 163.421C123.191 161.782 124.729 159.894 126.195 158.031C129.631 153.665 127.31 147.03 121.757 147.197L121.438 147.207C108.342 147.602 96.0819 147.972 84.2596 149.625C60.8863 152.891 45.0817 179.529 60.2345 197.621ZM93.0447 90.8202C79.5125 81.4711 61.7189 87.2268 55.1902 102.323C47.9838 118.987 59.829 137.637 77.8909 139.473C88.9103 140.593 101.233 139.925 113.447 137.901C122.986 136.32 127.618 125.198 121.408 117.787C120.791 117.051 120.202 116.364 119.655 115.745C111.297 106.309 102.275 97.1969 93.0447 90.8202Z" fill="white"/>
<path d="M105.05 226.221L91.3388 222.765L134.134 179.957L126.349 211.122C127.252 211.345 128.311 211.625 129.495 211.937C142.666 215.411 171.453 223.004 176.03 204.638C180.719 185.861 152.806 179.605 139.183 176.552C138.718 176.447 138.27 176.347 137.84 176.25L151.657 162.428C163.294 164.745 177.857 165.369 181.023 152.7C182.637 146.232 180.298 141.476 176.152 137.926L192.999 121.074C206.596 127.954 215.198 137.711 212.91 152.99L212.911 152.988L212.916 152.992C210.798 167.303 202.853 174.231 192.306 176.66C206.787 184.19 214.156 195.737 207.136 215.755C198.425 240.619 177.728 242.717 150.202 237.514L143.523 264.251L127.38 260.234L133.973 233.857C129.788 232.818 125.514 231.717 121.109 230.522L114.494 257.024L98.3707 253.008L105.05 226.221Z" fill="white"/>
</g>
<defs>
<clipPath id="clip0_10_128">
<rect width="300" height="300" fill="white"/>
</clipPath>
</defs>
</svg>
