<svg width="1550" height="865" viewBox="0 0 1550 865" fill="none" xmlns="http://www.w3.org/2000/svg">
<g clip-path="url(#clip0_10_2)">
<path d="M126.76 656.572C119.567 658.298 112.374 658.716 105.181 657.824C98.1932 657.145 91.514 654.951 85.143 651.243C74.0452 644.741 65.4136 635.028 59.2482 622.105C53.0827 608.919 50 593.685 50 576.4L102.098 563.892C102.098 571.749 103.434 577.583 106.106 581.393C108.777 584.942 111.141 587.255 113.196 588.333C116.895 590.588 120.903 591.328 125.218 590.554C129.534 589.779 133.747 587.72 137.858 584.377C140.735 582.115 142.996 579.608 144.64 576.856C146.489 574.055 147.825 571.508 148.647 569.216C149.675 566.612 150.291 564.238 150.497 562.094C150.702 559.949 150.805 558.222 150.805 556.913C150.805 555.603 150.702 553.926 150.497 551.88C150.291 549.834 149.675 547.756 148.647 545.646C147.825 543.486 146.489 541.581 144.64 539.93C142.996 537.968 140.735 536.416 137.858 535.273C135.597 534.506 133.131 533.92 130.459 533.514C127.993 533.058 125.321 532.521 122.444 531.903C117.306 531.041 111.963 529.967 106.414 528.68C100.865 527.394 95.316 525.19 89.7671 522.07C82.5741 518.036 76.5114 512.289 71.5791 504.831C66.6467 497.373 63.0502 488.94 60.7895 479.531C58.7344 470.073 58.0151 460.032 58.6316 449.408C59.4537 438.474 61.8171 427.693 65.7219 417.066C69.4212 407.273 74.0452 398.438 79.5941 390.558C85.143 382.679 91.3085 376.092 98.0905 370.797C104.872 365.241 112.168 361.132 119.978 358.472C127.787 355.811 135.7 354.828 143.715 355.523C151.524 356.005 158.615 358.1 164.986 361.808C171.357 365.254 176.803 370.101 181.324 376.349C186.051 382.285 189.647 389.409 192.114 397.721C194.58 406.033 195.813 415.034 195.813 424.723L143.715 437.231C143.715 431.208 142.173 427.388 139.091 425.771C136.214 424.105 133.645 423.15 131.384 422.907C130.973 423.006 129.945 423.121 128.301 423.254C126.863 423.076 125.116 423.495 123.061 424.512C121.211 425.218 119.259 426.604 117.203 428.668C115.148 430.471 113.504 433.092 112.271 436.531C110.627 441.116 110.319 445.642 111.346 450.109C112.374 454.314 114.429 457.356 117.512 459.235C120.389 460.639 123.574 461.839 127.068 462.833C130.562 463.566 134.261 464.249 138.166 464.883C141.66 465.353 145.153 465.955 148.647 466.688C152.346 467.371 156.046 468.316 159.745 469.523C173.309 474.123 183.893 483.105 191.497 496.469C199.307 509.783 203.211 525.737 203.211 544.331C203.211 562.663 199.307 580.361 191.497 597.426C183.893 614.441 173.309 628.505 159.745 639.617C154.402 644.043 148.955 647.576 143.407 650.218C137.858 653.122 132.309 655.239 126.76 656.572Z" fill="white"/>
<path d="M354.607 596.371L345.667 563.555L274.456 580.652L265.208 617.834L210.027 631.081L287.095 324.243L336.419 312.401L409.479 583.197L354.607 596.371ZM292.336 509.971L329.02 501.164L311.14 435.533L292.336 509.971Z" fill="white"/>
<path d="M554.81 258.792V325.572L511.344 336.008V558.741L459.246 571.249V348.515L416.088 358.877V292.096L554.81 258.792Z" fill="white"/>
<path d="M674.779 230.775C690.398 227.026 705.092 227.295 718.862 231.584C732.631 235.873 744.654 243.331 754.93 253.958C765.206 264.324 773.323 277.564 779.283 293.68C785.243 309.795 788.223 327.805 788.223 347.708C788.223 367.611 785.243 387.051 779.283 406.029C773.323 425.006 765.206 442.275 754.93 457.836C744.654 473.136 732.631 486.236 718.862 497.136C705.092 508.036 690.398 515.362 674.779 519.111C659.16 522.861 644.466 522.592 630.696 518.303C616.927 514.014 604.904 506.687 594.628 496.321C584.558 485.645 576.543 472.249 570.583 456.133C564.623 440.018 561.643 422.008 561.643 402.105C561.643 382.202 564.623 362.761 570.583 343.784C576.543 324.807 584.558 307.693 594.628 292.443C604.904 276.882 616.927 263.651 630.696 252.751C644.466 241.85 659.16 234.525 674.779 230.775ZM674.779 452.723C683.205 450.7 691.117 446.837 698.516 441.132C705.914 435.166 712.388 427.981 717.937 419.578C723.486 411.175 727.802 401.889 730.885 391.721C734.173 381.504 735.817 371.027 735.817 360.289C735.817 349.552 734.173 339.864 730.885 331.226C727.802 322.538 723.486 315.325 717.937 309.586C712.388 303.847 705.914 299.902 698.516 297.75C691.117 295.336 683.205 295.14 674.779 297.163C666.353 299.186 658.441 303.181 651.042 309.147C643.643 314.852 637.17 321.906 631.621 330.309C626.072 338.712 621.653 348.022 618.365 358.239C615.282 368.407 613.741 378.86 613.741 389.597C613.741 400.335 615.282 410.047 618.365 418.735C621.653 427.373 626.072 434.562 631.621 440.301C637.17 446.039 643.643 450.116 651.042 452.53C658.441 454.682 666.353 454.746 674.779 452.723Z" fill="white"/>
<path d="M870.949 477.908C863.756 479.635 856.563 480.052 849.37 479.16C842.382 478.481 835.703 476.287 829.332 472.579C818.234 466.077 809.602 456.364 803.437 443.441C797.271 430.256 794.189 415.021 794.189 397.736L846.287 385.229C846.287 393.085 847.623 398.919 850.294 402.729C852.966 406.278 855.329 408.591 857.385 409.669C861.084 411.924 865.091 412.664 869.407 411.89C873.723 411.115 877.936 409.056 882.046 405.713C884.924 403.451 887.184 400.944 888.828 398.192C890.678 395.391 892.014 392.844 892.836 390.552C893.863 387.948 894.48 385.574 894.686 383.43C894.891 381.285 894.994 379.558 894.994 378.249C894.994 376.94 894.891 375.262 894.686 373.216C894.48 371.17 893.863 369.092 892.836 366.982C892.014 364.823 890.678 362.917 888.828 361.266C887.184 359.304 884.924 357.752 882.046 356.609C879.786 355.842 877.319 355.256 874.648 354.85C872.182 354.394 869.51 353.857 866.633 353.239C861.495 352.377 856.151 351.303 850.603 350.016C845.054 348.73 839.505 346.526 833.956 343.406C826.763 339.372 820.7 333.626 815.768 326.167C810.835 318.709 807.239 310.276 804.978 300.867C802.923 291.409 802.204 281.368 802.82 270.744C803.642 259.81 806.006 249.029 809.911 238.402C813.61 228.609 818.234 219.774 823.783 211.894C829.332 204.015 835.497 197.428 842.279 192.133C849.061 186.577 856.357 182.468 864.167 179.808C871.976 177.147 879.888 176.164 887.904 176.859C895.713 177.341 902.803 179.436 909.174 183.144C915.545 186.591 920.991 191.437 925.513 197.685C930.24 203.621 933.836 210.745 936.302 219.057C938.768 227.369 940.002 236.37 940.002 246.06L887.904 258.567C887.904 252.544 886.362 248.724 883.279 247.107C880.402 245.441 877.833 244.486 875.573 244.243C875.162 244.342 874.134 244.458 872.49 244.59C871.051 244.412 869.304 244.831 867.249 245.849C865.4 246.555 863.447 247.94 861.392 250.005C859.337 251.807 857.693 254.428 856.46 257.867C854.816 262.452 854.507 266.978 855.535 271.445C856.563 275.65 858.618 278.692 861.7 280.571C864.578 281.975 867.763 283.175 871.257 284.169C874.751 284.902 878.45 285.585 882.355 286.219C885.848 286.69 889.342 287.291 892.836 288.024C896.535 288.707 900.234 289.652 903.934 290.859C917.498 295.459 928.082 304.441 935.686 317.805C943.495 331.119 947.4 347.073 947.4 365.667C947.4 383.999 943.495 401.697 935.686 418.762C928.082 435.777 917.498 449.841 903.934 460.954C898.59 465.379 893.144 468.913 887.595 471.554C882.046 474.458 876.497 476.576 870.949 477.908Z" fill="white"/>
<path d="M1081.53 133.515L1133.63 121.008V409.344L1081.53 421.851V313.038L1016.18 328.728V437.541L964.081 450.049V161.713L1016.18 149.205V262.34L1081.53 246.65V133.515Z" fill="white"/>
<path d="M1211.98 390.533L1159.88 403.041V114.312L1211.98 101.804V390.533Z" fill="white"/>
<path d="M590.881 857.582C583.302 859.402 575.723 859.912 568.143 859.113C560.781 858.523 553.743 856.416 547.03 852.79C535.336 846.431 526.241 836.83 519.745 823.986C513.248 810.88 510 795.685 510 778.4L564.895 765.221C564.895 773.077 566.303 778.894 569.118 782.67C571.933 786.184 574.423 788.467 576.589 789.519C580.487 791.726 584.709 792.414 589.257 791.584C593.804 790.754 598.244 788.641 602.575 785.244C605.606 782.945 607.988 780.409 609.721 777.636C611.67 774.811 613.077 772.247 613.943 769.944C615.026 767.327 615.676 764.945 615.892 762.798C616.109 760.651 616.217 758.923 616.217 757.614C616.217 756.304 616.109 754.628 615.892 752.585C615.676 750.542 615.026 748.472 613.943 746.375C613.077 744.226 611.67 742.337 609.721 740.71C607.988 738.769 605.606 737.246 602.575 736.141C600.193 735.403 597.594 734.848 594.779 734.477C592.18 734.053 589.365 733.55 586.333 732.969C580.92 732.174 575.289 731.168 569.443 729.953C563.596 728.738 557.749 726.606 551.902 723.558C544.323 719.616 537.935 713.948 532.738 706.553C527.54 699.159 523.751 690.772 521.369 681.392C519.203 671.96 518.445 661.929 519.095 651.297C519.961 640.352 522.452 629.54 526.566 618.863C530.464 609.023 535.336 600.128 541.183 592.177C547.03 584.226 553.526 577.56 560.672 572.178C567.819 566.534 575.506 562.331 583.735 559.57C591.964 556.809 600.301 555.724 608.746 556.315C616.975 556.696 624.446 558.7 631.159 562.326C637.872 565.69 643.611 570.467 648.375 576.656C653.355 582.531 657.145 589.609 659.743 597.889C662.342 606.169 663.641 615.154 663.641 624.844L608.746 638.023C608.746 632 607.122 628.2 603.874 626.622C600.842 624.993 598.135 624.072 595.753 623.858C595.32 623.962 594.237 624.091 592.505 624.245C590.989 624.085 589.149 624.527 586.983 625.571C585.034 626.301 582.977 627.711 580.811 629.802C578.646 631.632 576.914 634.273 575.614 637.728C573.882 642.334 573.557 646.864 574.64 651.318C575.723 655.51 577.888 658.526 581.136 660.365C584.168 661.732 587.524 662.89 591.206 663.84C594.887 664.527 598.785 665.163 602.899 665.746C606.581 666.172 610.262 666.729 613.943 667.416C617.841 668.052 621.739 668.949 625.637 670.108C639.929 674.534 651.082 683.379 659.094 696.645C667.323 709.859 671.437 725.763 671.437 744.356C671.437 762.688 667.323 780.437 659.094 797.602C651.082 814.715 639.929 828.915 625.637 840.203C620.007 844.697 614.268 848.301 608.421 851.014C602.575 853.989 596.728 856.179 590.881 857.582Z" fill="#FF9712"/>
<path d="M847.852 623.437C847.852 639.936 845.253 656.142 840.056 672.056C835.075 687.655 828.037 702.046 818.942 715.229C810.064 728.359 799.669 739.628 787.759 749.035C775.849 758.179 763.073 764.52 749.43 768.057V814.018L694.535 827.197V538.861L749.43 525.682C763.073 522.669 775.849 523.006 787.759 526.694C799.669 530.382 810.064 536.659 818.942 545.527C828.037 554.343 835.075 565.485 840.056 578.955C845.253 592.111 847.852 606.939 847.852 623.437ZM749.43 701.669C755.494 699.952 761.124 697.029 766.321 692.9C771.735 688.458 776.39 683.412 780.288 677.762C784.186 671.851 787.218 665.361 789.383 658.294C791.765 651.175 792.956 643.949 792.956 636.617C792.956 629.284 791.765 622.63 789.383 616.654C787.218 610.627 784.186 605.724 780.288 601.946C776.39 597.906 771.735 595.096 766.321 593.515C761.124 591.62 755.494 591.269 749.43 592.463V701.669Z" fill="#FF9712"/>
<path d="M952.531 690.621C949.716 691.82 946.901 692.889 944.086 693.827C941.27 694.765 938.347 695.728 935.315 696.718V769.391L880.42 782.57V495.02L935.315 481.841C948.958 478.827 961.734 478.772 973.644 481.674C985.555 484.576 995.949 489.806 1004.83 497.364C1013.92 504.871 1020.96 514.442 1025.94 526.079C1031.14 537.663 1033.74 550.789 1033.74 565.454C1033.74 580.905 1031.03 595.959 1025.62 610.615C1020.2 625.009 1012.62 638.22 1002.88 650.25L1055.5 740.537L990.86 756.056L952.531 690.621ZM935.315 629.937C941.162 628.272 946.684 625.767 951.881 622.425C957.295 618.768 961.951 614.638 965.849 610.036C969.963 605.382 973.103 600.438 975.269 595.204C977.651 589.657 978.842 584.133 978.842 578.633C978.842 573.134 977.651 568.313 975.269 564.171C973.103 559.977 969.963 556.54 965.849 553.862C961.951 551.131 957.295 549.368 951.881 548.573C946.684 547.464 941.162 547.48 935.315 548.622V629.937Z" fill="#FF9712"/>
<path d="M1134.52 721.566L1079.63 734.745V446.016L1134.52 432.837V721.566Z" fill="#FF9712"/>
<path d="M1303.61 391.457V458.237L1257.81 469.233V691.967L1202.92 705.146V482.412L1157.44 493.33V426.549L1303.61 391.457Z" fill="#FF9712"/>
<path d="M1505.38 632.531L1315.03 678.229L1414.75 430.376L1328.03 451.197V384.417L1506.68 341.919L1406.96 589.772L1505.38 566.143V632.531Z" fill="#FF9712"/>
<g clip-path="url(#clip1_10_2)">
<path d="M378.731 55.1344L378.734 55.1318L393.862 40.6267C368.099 15.2422 332.004 -0.509005 292.073 -0.442417C213.965 -0.312164 150.756 60.2925 150.892 134.922C150.961 172.525 167.099 206.514 193.087 230.968L177.209 246.128C202.946 271.094 238.73 286.571 278.297 286.571C356.669 286.571 420.201 225.85 420.201 150.947C420.201 113.54 404.356 79.6705 378.731 55.1344Z" fill="#FF9712"/>
<path fill-rule="evenodd" clip-rule="evenodd" d="M378.374 54.7767L209.009 217.206C186.439 196.4 172.38 167.218 172.321 134.886C172.205 71.5643 225.837 20.1422 292.111 20.0317C325.938 19.9753 356.521 33.2978 378.374 54.7767ZM342.07 39.0349C353.05 45.4858 355.682 59.1682 347.982 69.0445C341.614 77.2136 332.494 85.1138 324.154 92.3383L324.152 92.3403C321.978 94.2233 319.858 96.0605 317.853 97.8445C311.613 103.396 301.726 98.7837 301.548 90.6391L301.539 90.2271C301.291 79.1625 301.971 68.0995 303.731 58.1821C306.88 40.4461 326.031 29.6121 342.07 39.0349ZM237.435 78.388C227.618 65.75 231.024 48.6615 244.843 40.0958C263.864 28.305 289.889 42.8437 291.626 64.4441C292.629 76.909 291.062 89.6531 289.378 103.357L289.341 103.661C288.557 110.04 280.387 112.101 274.529 108.949C270.924 107.01 267.053 104.774 264.068 102.666C253.609 95.278 244.16 87.045 237.435 78.388ZM195.235 188.818C202.143 196.7 214.202 197.179 222.766 190.953C232.388 183.958 241.851 173.111 249.847 163.946L249.848 163.945L249.848 163.944C252.302 161.132 254.617 158.478 256.757 156.142C258.191 154.576 259.729 152.771 261.195 150.992C264.631 146.82 262.31 140.48 256.757 140.641L256.438 140.65C243.342 141.027 231.082 141.381 219.26 142.96C195.886 146.08 180.082 171.532 195.235 188.818ZM228.045 86.7747C214.513 77.8421 196.719 83.3414 190.19 97.7653C182.984 113.687 194.829 131.506 212.891 133.26C223.91 134.331 236.233 133.692 248.447 131.758C257.986 130.248 262.618 119.622 256.408 112.54C255.791 111.837 255.202 111.18 254.655 110.589C246.297 101.574 237.275 92.8674 228.045 86.7747Z" fill="white"/>
<path d="M240.05 216.144L226.339 212.842L269.134 171.941L261.349 201.717C262.252 201.931 263.311 202.198 264.495 202.497C277.666 205.816 306.453 213.071 311.03 195.523C315.719 177.582 287.806 171.605 274.183 168.687C273.718 168.588 273.27 168.492 272.84 168.399L286.657 155.193C298.294 157.406 312.857 158.003 316.023 145.898C317.637 139.718 315.298 135.174 311.152 131.782L327.999 115.681C341.596 122.255 350.198 131.577 347.91 146.175L347.911 146.174L347.916 146.177C345.798 159.851 337.853 166.47 327.306 168.791C341.787 175.985 349.156 187.018 342.136 206.145C333.425 229.901 312.728 231.905 285.202 226.934L278.523 252.48L262.38 248.642L268.973 223.44C264.788 222.447 260.514 221.395 256.109 220.254L249.494 245.576L233.371 241.738L240.05 216.144Z" fill="white"/>
</g>
</g>
<defs>
<clipPath id="clip0_10_2">
<rect width="1550" height="865" fill="white"/>
</clipPath>
<clipPath id="clip1_10_2">
<rect width="300" height="286.637" fill="white" transform="translate(135)"/>
</clipPath>
</defs>
</svg>
